<?xml version="1.0" encoding="utf-8"?>
<!-- Generator: Adobe Illustrator 26.0.3, SVG Export Plug-In . SVG Version: 6.00 Build 0)  -->
<svg version="1.1" id="Layer_1" xmlns="http://www.w3.org/2000/svg" xmlns:xlink="http://www.w3.org/1999/xlink" x="0px" y="0px"
	 viewBox="0 0 48 48" style="enable-background:new 0 0 48 48;" xml:space="preserve" width="48" height="48">
<style type="text/css">
	.st0{fill:#E8E8E8;}
	.st1{fill:#505051;}
	.st2{fill:#00D300;}
	.st3{fill:#FFFFFF;}
</style>
<g id="logo">
	<g id="Group_71">
		<path id="Path_13" class="st0" d="M4,0h40c2.2,0,4,1.8,4,4v40c0,2.2-1.8,4-4,4H4c-2.2,0-4-1.8-4-4V4C0,1.8,1.8,0,4,0z"/>
		<g id="Group_70" transform="translate(5.999 6.001)">
			<path id="Path_6" class="st1" d="M13,24c-0.6,0-1-0.4-1-1v-1c0-0.6,0.4-1,1-1h1V11h-3v1c0,0.6-0.4,1-1,1H9c-0.6,0-1-0.4-1-1V9
				c0-0.6,0.4-1,1-1h14c0.6,0,1,0.4,1,1v3c0,0.6-0.4,1-1,1h-1c-0.6,0-1-0.4-1-1v-1h-3v10h1c0.6,0,1,0.4,1,1v1c0,0.6-0.4,1-1,1H13z"
				/>
			<g id="Group_69">
				<path id="Path_19" class="st2" d="M36,36h-4v-2h2v-4h2V36z M6,36H0v-4h2v2h4V36z M2,30H0v-4h2V30z M2,24H0v-4h2V24z M2,18H0v-4
					h2V18z M2,12H0V8h2V12z M2,6H0V0h4v2H2V6z M36,4h-2V2h-4V0h6V4z M28,2h-4V0h4V2z M22,2h-4V0h4V2z M16,2h-4V0h4V2z M10,2H6V0h4V2
					z"/>
				<g id="Group_68" transform="translate(8.001 5.999)">
					<g id="Group_66" transform="translate(24)">
						<path id="Path_16" class="st3" d="M3,1c1.1,0,2,1.2,2,2.7v14.5C5,19.8,4.1,21,3,21s-2-1.2-2-2.7V3.7C1,2.2,1.9,1,3,1z"/>
						<path id="Path_16_-_Outline" class="st2" d="M3,2C2.4,2,2,2.4,2,3v16c0,0.6,0.4,1,1,1s1-0.4,1-1V3C4,2.4,3.6,2,3,2 M3,0
							c1.7,0,3,1.3,3,3v16c0,1.7-1.3,3-3,3s-3-1.3-3-3V3C0,1.3,1.3,0,3,0z"/>
					</g>
					<g id="Group_67" transform="translate(0 26)">
						<path id="Path_18" class="st3" d="M3.7,1h14.5C19.8,1,21,1.9,21,3s-1.2,2-2.7,2H3.7C2.2,5,1,4.1,1,3S2.2,1,3.7,1z"/>
						<path id="Path_18_-_Outline" class="st2" d="M3,2C2.4,2,2,2.4,2,3s0.4,1,1,1h16c0.6,0,1-0.4,1-1s-0.4-1-1-1H3 M3,0h16
							c1.7,0,3,1.3,3,3s-1.3,3-3,3H3C1.3,6,0,4.7,0,3S1.3,0,3,0z"/>
					</g>
				</g>
			</g>
		</g>
	</g>
</g>
</svg>
